# Blender v2.74 (sub 0) OBJ File: 'board.blend'
# www.blender.org
o Cube
v 6.123497 -0.300000 -6.123497
v 6.123497 -0.300000 6.123497
v -6.123498 -0.300000 6.123496
v -6.123495 -0.300000 -6.123499
v 6.123500 0.000000 -6.123494
v 6.123493 0.000000 6.123501
v -6.123499 0.000000 6.123495
v -6.123497 0.000000 -6.123497
vt 0.000000 0.000000
vt 1.000000 0.000000
vt 1.000000 1.000000
vt 0.000000 1.000000
vn 0.000000 -1.000000 0.000000
vn 0.000000 1.000000 0.000000
vn 1.000000 0.000000 0.000000
vn -0.000000 0.000000 1.000000
vn -1.000000 -0.000000 -0.000000
vn 0.000000 0.000000 -1.000000
s off
f 1/1/1 2/2/1 3/3/1
f 8/2/2 7/3/2 6/4/2
f 5/2/3 6/3/3 2/4/3
f 6/2/4 7/3/4 3/4/4
f 3/1/5 7/2/5 8/3/5
f 1/2/6 4/3/6 8/4/6
f 4/4/1 1/1/1 3/3/1
f 5/1/2 8/2/2 6/4/2
f 1/1/3 5/2/3 2/4/3
f 2/1/4 6/2/4 3/4/4
f 4/4/5 3/1/5 8/3/5
f 5/1/6 1/2/6 8/4/6
