# Blender v2.74 (sub 0) OBJ File: 'pernas.blend'
# www.blender.org
o Cube.001
v -9.251385 -0.217342 9.251382
v -7.949852 -0.217342 7.949850
v -6.260691 -0.217342 9.251382
v -5.379905 -0.217342 7.949850
v -9.251384 -0.217342 6.041152
v -7.949852 -0.217342 5.191252
v -6.260691 -8.202019 9.251382
v -9.251385 -8.202019 9.251382
v -5.379905 -8.202019 7.949850
v -7.949852 -8.202019 7.949850
v -9.251384 -8.202019 6.041152
v -7.949852 -8.202019 5.191252
v 9.251385 -0.217342 9.251382
v 7.949852 -0.217342 7.949850
v 6.260691 -0.217342 9.251382
v 5.379905 -0.217342 7.949850
v 9.251384 -0.217342 6.041152
v 7.949852 -0.217342 5.191252
v 6.260691 -8.202019 9.251382
v 9.251385 -8.202019 9.251382
v 5.379905 -8.202019 7.949850
v 7.949852 -8.202019 7.949850
v 9.251384 -8.202019 6.041152
v 7.949852 -8.202019 5.191252
v -9.251385 -0.217342 -9.251382
v -7.949852 -0.217342 -7.949850
v -6.260691 -0.217342 -9.251382
v -5.379905 -0.217342 -7.949850
v -9.251384 -0.217342 -6.041152
v -7.949852 -0.217342 -5.191252
v -6.260691 -8.202019 -9.251382
v -9.251385 -8.202019 -9.251382
v -5.379905 -8.202019 -7.949850
v -7.949852 -8.202019 -7.949850
v -9.251384 -8.202019 -6.041152
v -7.949852 -8.202019 -5.191252
v 9.251385 -0.217342 -9.251382
v 7.949852 -0.217342 -7.949850
v 6.260691 -0.217342 -9.251382
v 5.379905 -0.217342 -7.949850
v 9.251384 -0.217342 -6.041152
v 7.949852 -0.217342 -5.191252
v 6.260691 -8.202019 -9.251382
v 9.251385 -8.202019 -9.251382
v 5.379905 -8.202019 -7.949850
v 7.949852 -8.202019 -7.949850
v 9.251384 -8.202019 -6.041152
v 7.949852 -8.202019 -5.191252
vt 0.501988 1.000000
vt 0.501988 0.000000
vt 0.547658 0.000000
vt 0.892810 0.000000
vt 0.892810 1.000000
vt 0.871262 1.000000
vt 0.970006 0.068137
vt 0.970006 0.078310
vt 0.941868 0.078310
vt 0.995408 0.068137
vt 0.995408 0.078310
vt 0.106296 0.000000
vt 0.106297 1.000000
vt 0.053149 1.000000
vt 0.914358 0.000000
vt 0.763519 0.000000
vt 0.763519 1.000000
vt 0.720972 1.000000
vt 0.311618 0.000000
vt 0.311619 1.000000
vt 0.262106 1.000000
vt 0.456316 1.000000
vt 0.410646 1.000000
vt 0.410645 0.000000
vt 0.849714 1.000000
vt 0.849714 0.000000
vt 0.997558 0.092420
vt 0.970236 0.092420
vt 0.970236 0.102131
vt 0.943196 0.092420
vt 0.159444 0.000000
vt 0.212591 0.000000
vt 0.212591 1.000000
vt 0.785068 1.000000
vt 0.678424 1.000000
vt 0.678425 0.000000
vt 0.593328 0.000000
vt 0.593328 1.000000
vt 0.828166 1.000000
vt 0.828165 0.000000
vt 0.998229 0.131320
vt 0.973549 0.131320
vt 0.973549 0.139176
vt 0.939604 0.131320
vt 0.000001 1.000000
vt 0.000000 0.000000
vt 0.935905 0.000000
vt 0.935905 1.000000
vt 0.635876 1.000000
vt 0.361132 1.000000
vt 0.361132 0.000000
vt 0.806617 1.000000
vt 0.970972 0.109715
vt 0.970972 0.121574
vt 0.940529 0.121574
vt 0.996581 0.109715
vt 0.996581 0.121574
vt 0.806615 0.000000
vt 0.547658 1.000000
vt 0.871262 0.000000
vt 0.941868 0.068137
vt 0.053148 0.000000
vt 0.914358 1.000000
vt 0.720972 0.000000
vt 0.262105 0.000000
vt 0.456315 0.000000
vt 0.997558 0.102131
vt 0.943196 0.102131
vt 0.159444 1.000000
vt 0.785067 0.000000
vt 0.998229 0.139176
vt 0.939604 0.139176
vt 0.635875 0.000000
vt 0.940529 0.109715
vn 1.000000 0.000000 0.000000
vn -0.546800 0.000000 -0.837300
vn 0.000000 -1.000000 0.000000
vn -1.000000 0.000000 -0.000000
vn 0.828200 0.000000 0.560500
vn 0.000000 0.000000 -1.000000
vn 0.000000 0.000000 1.000000
vn 0.546800 0.000000 -0.837300
vn -0.828200 0.000000 0.560500
vn -0.546800 0.000000 0.837300
vn 0.828200 0.000000 -0.560500
vn 0.546800 0.000000 0.837300
vn -0.828200 0.000000 -0.560500
s off
f 2/1/1 10/2/1 12/3/1
f 6/4/2 12/5/2 11/6/2
f 10/7/3 8/8/3 11/9/3
f 10/7/3 9/10/3 7/11/3
f 5/12/4 11/13/4 8/14/4
f 3/5/5 7/4/5 9/15/5
f 4/16/6 9/17/6 10/18/6
f 1/19/7 8/20/7 7/21/7
f 24/22/4 22/23/4 14/24/4
f 23/6/8 24/25/8 18/26/8
f 23/27/3 20/28/3 22/29/3
f 22/29/3 20/28/3 19/30/3
f 20/31/1 23/32/1 17/33/1
f 21/34/9 19/17/9 15/16/9
f 22/18/6 21/35/6 16/36/6
f 19/21/7 20/33/7 13/32/7
f 36/3/1 34/37/1 26/38/1
f 35/25/10 36/39/10 30/40/10
f 35/41/3 32/42/3 34/43/3
f 34/43/3 32/42/3 31/44/3
f 32/14/4 35/45/4 29/46/4
f 33/15/11 31/47/11 27/48/11
f 34/49/7 33/38/7 28/37/7
f 31/23/6 32/50/6 25/51/6
f 38/2/4 46/1/4 48/22/4
f 42/40/12 48/39/12 47/52/12
f 46/53/3 44/54/3 47/55/3
f 46/53/3 45/56/3 43/57/3
f 41/13/1 47/12/1 44/31/1
f 39/58/13 43/52/13 45/34/13
f 40/36/7 45/35/7 46/49/7
f 37/51/6 44/50/6 43/20/6
f 6/59/1 2/1/1 12/3/1
f 5/60/2 6/4/2 11/6/2
f 12/61/3 10/7/3 11/9/3
f 8/8/3 10/7/3 7/11/3
f 1/62/4 5/12/4 8/14/4
f 4/63/5 3/5/5 9/15/5
f 2/64/6 4/16/6 10/18/6
f 3/65/7 1/19/7 7/21/7
f 18/66/4 24/22/4 14/24/4
f 17/60/8 23/6/8 18/26/8
f 24/67/3 23/27/3 22/29/3
f 21/68/3 22/29/3 19/30/3
f 13/69/1 20/31/1 17/33/1
f 16/70/9 21/34/9 15/16/9
f 14/64/6 22/18/6 16/36/6
f 15/65/7 19/21/7 13/32/7
f 30/59/1 36/3/1 26/38/1
f 29/26/10 35/25/10 30/40/10
f 36/71/3 35/41/3 34/43/3
f 33/72/3 34/43/3 31/44/3
f 25/62/4 32/14/4 29/46/4
f 28/63/11 33/15/11 27/48/11
f 26/73/7 34/49/7 28/37/7
f 27/24/6 31/23/6 25/51/6
f 42/66/4 38/2/4 48/22/4
f 41/58/12 42/40/12 47/52/12
f 48/74/3 46/53/3 47/55/3
f 44/54/3 46/53/3 43/57/3
f 37/69/1 41/13/1 44/31/1
f 40/70/13 39/58/13 45/34/13
f 38/73/7 40/36/7 46/49/7
f 39/19/6 37/51/6 43/20/6
