# Blender v2.74 (sub 0) OBJ File: 'table.blend'
# www.blender.org
o Cube
v -10.595685 -0.434683 10.595682
v -10.595688 0.000000 10.595680
v 10.595685 -0.434683 10.595682
v 10.595688 0.000000 10.595680
v -10.595685 -0.434683 -10.595682
v -10.595688 0.000000 -10.595680
v 10.595685 -0.434683 -10.595682
v 10.595688 0.000000 -10.595680
vt 0.000200 0.333533
vt 0.333134 0.333533
vt 0.333134 0.666467
vt 0.666866 0.666467
vt 0.666866 0.333533
vt 0.999800 0.333533
vt 0.333134 0.000200
vt 0.333134 0.333134
vt 0.000200 0.333134
vt 0.333533 0.000200
vt 0.666467 0.000200
vt 0.666467 0.333134
vt 0.999800 0.000200
vt 0.999800 0.333133
vt 0.666866 0.333133
vt 0.000200 0.666867
vt 0.333134 0.666867
vt 0.333134 0.999800
vt 0.000200 0.666467
vt 0.999800 0.666467
vt 0.000200 0.000200
vt 0.333533 0.333134
vt 0.666866 0.000200
vt 0.000200 0.999800
vn 0.000000 0.000000 1.000000
vn -1.000000 -0.000000 0.000000
vn 0.000000 0.000000 -1.000000
vn 1.000000 -0.000000 0.000000
vn 0.000000 1.000000 0.000000
vn 0.000000 -1.000000 0.000000
s off
f 1/1/1 3/2/1 4/3/1
f 6/4/2 5/5/2 1/6/2
f 8/7/3 7/8/3 5/9/3
f 3/10/4 7/11/4 8/12/4
f 4/13/5 8/14/5 6/15/5
f 5/16/6 7/17/6 3/18/6
f 2/19/1 1/1/1 4/3/1
f 2/20/2 6/4/2 1/6/2
f 6/21/3 8/7/3 5/9/3
f 4/22/4 3/10/4 8/12/4
f 2/23/5 4/13/5 6/15/5
f 1/24/6 5/16/6 3/18/6
