# Blender v2.74 (sub 0) OBJ File: 'table.blend'
# www.blender.org
o Cube
v -10.595688 0.000000 10.595680
v 10.595688 0.000000 10.595680
v -10.595688 0.000000 -10.595680
v 10.595688 0.000000 -10.595680
v -6.506410 0.000000 6.506404
v -6.506410 0.000000 -6.506404
v 6.506410 0.000000 6.506404
v 6.506410 0.000000 -6.506404
v -10.595688 -0.434683 10.595680
v 10.595688 -0.434683 10.595680
v -10.595688 -0.434683 -10.595680
v 10.595688 -0.434683 -10.595680
v -6.506410 -0.434683 6.506404
v -6.506410 -0.434683 -6.506404
v 6.506410 -0.434683 6.506404
v 6.506410 -0.434683 -6.506404
vt 0.041052 0.000200
vt 0.078758 0.000200
vt 0.078758 0.333134
vt 0.041052 0.333533
vt 0.078758 0.333533
vt 0.078758 0.666467
vt 0.504578 0.693313
vt 0.504578 0.731033
vt 0.308917 0.926693
vt 0.542298 0.693313
vt 0.308917 0.497653
vt 0.542298 0.731033
vt 0.737958 0.497653
vt 0.737958 0.926693
vt 0.116555 0.000200
vt 0.154261 0.000200
vt 0.154261 0.333134
vt 0.308917 0.497138
vt 0.308917 0.068098
vt 0.502284 0.261464
vt 0.737958 0.497138
vt 0.502284 0.303772
vt 0.737958 0.068098
vt 0.544591 0.303772
vt 0.544591 0.261464
vt 0.078758 0.666866
vt 0.078758 0.999800
vt 0.041052 0.999800
vt 0.041052 0.333134
vt 0.041052 0.666467
vt 0.116555 0.333134
vt 0.041052 0.666866
vn 0.000000 0.000000 -1.000000
vn 0.000000 0.000000 1.000000
vn 0.000000 1.000000 0.000000
vn 1.000000 0.000000 0.000000
vn 0.000000 -1.000000 0.000000
vn -1.000000 0.000000 0.000000
s off
f 3/1/1 4/2/1 12/3/1
f 9/4/2 10/5/2 2/6/2
f 5/7/3 6/8/3 3/9/3
f 7/10/3 5/7/3 1/11/3
f 8/12/3 7/10/3 2/13/3
f 6/8/3 8/12/3 4/14/3
f 10/15/4 12/16/4 4/17/4
f 9/18/5 11/19/5 14/20/5
f 10/21/5 9/18/5 13/22/5
f 12/23/5 10/21/5 15/24/5
f 11/19/5 12/23/5 16/25/5
f 9/26/6 1/27/6 3/28/6
f 11/29/1 3/1/1 12/3/1
f 1/30/2 9/4/2 2/6/2
f 1/11/3 5/7/3 3/9/3
f 2/13/3 7/10/3 1/11/3
f 4/14/3 8/12/3 2/13/3
f 3/9/3 6/8/3 4/14/3
f 2/31/4 10/15/4 4/17/4
f 13/22/5 9/18/5 14/20/5
f 15/24/5 10/21/5 13/22/5
f 16/25/5 12/23/5 15/24/5
f 14/20/5 11/19/5 16/25/5
f 11/32/6 9/26/6 3/28/6
